<svg width="8" height="8" viewBox="0 0 8 8" fill="none" xmlns="http://www.w3.org/2000/svg">
    <path fill-rule="evenodd" clip-rule="evenodd" d="M4.63034 5.14198C4.65523 5.02779 4.71936 4.92673 4.81091 4.85745C5.13086 4.6153 5.32989 4.23944 5.32989 3.82284C5.32989 3.11803 4.75039 2.51747 3.99997 2.51747C3.24955 2.51747 2.67005 3.11803 2.67005 3.82284C2.67005 4.22531 2.85567 4.5894 3.15659 4.8321C3.24562 4.9039 3.30658 5.00633 3.32832 5.12065C3.37209 5.35076 3.40771 5.61396 3.43572 5.9239H4.5329C4.5456 5.63772 4.5781 5.3817 4.63034 5.14198ZM5.00023 6.01942C4.99646 6.14136 4.9964 6.27066 5.00023 6.40875H2.99967C2.96963 5.904 2.92498 5.52128 2.86652 5.21389C2.45956 4.88566 2.19946 4.38445 2.19946 3.82284C2.19946 2.83413 3.00558 2.03262 3.99997 2.03262C4.99436 2.03262 5.80048 2.83413 5.80048 3.82284C5.80048 4.4044 5.52157 4.9212 5.0895 5.2482C5.03985 5.47602 5.00931 5.7265 5.00023 6.01942Z" fill="#525F76"/>
    <path fill-rule="evenodd" clip-rule="evenodd" d="M4.80726 7.20436C4.91388 7.20436 5.00032 7.1153 5.00032 7.00545C5.00032 6.89559 4.91388 6.80653 4.80726 6.80653H3.19282C3.08619 6.80653 2.99976 6.89559 2.99976 7.00545C2.99976 7.1153 3.08619 7.20436 3.19282 7.20436H4.80726Z" fill="#525F76"/>
    <path fill-rule="evenodd" clip-rule="evenodd" d="M4.40718 8C4.5138 8 4.60024 7.91094 4.60024 7.80109C4.60024 7.69123 4.5138 7.60217 4.40718 7.60217H3.59296C3.59296 7.60217 3.59296 7.60217 3.59296 7.60217C3.48634 7.60217 3.3999 7.69123 3.3999 7.80109C3.3999 7.91094 3.48634 8 3.59296 8H4.40718Z" fill="#525F76"/>
    <path fill-rule="evenodd" clip-rule="evenodd" d="M1.04816 1.5388C1.1384 1.44246 1.28735 1.43973 1.38086 1.5327L2.03559 2.18369C2.1291 2.27666 2.13175 2.43014 2.04151 2.52648C1.95127 2.62282 1.80232 2.62555 1.70881 2.53258L1.05408 1.88159C0.960572 1.78862 0.957922 1.63515 1.04816 1.5388Z" fill="#428AFF"/>
    <path fill-rule="evenodd" clip-rule="evenodd" d="M6.95184 1.5388C6.8616 1.44246 6.71265 1.43973 6.61914 1.5327L5.96441 2.18369C5.8709 2.27666 5.86825 2.43014 5.95849 2.52648C6.04873 2.62282 6.19768 2.62555 6.29119 2.53258L6.94592 1.88159C7.03943 1.78862 7.04208 1.63515 6.95184 1.5388Z" fill="#428AFF"/>
    <path fill-rule="evenodd" clip-rule="evenodd" d="M1.04816 6.10692C1.1384 6.20326 1.28735 6.20599 1.38086 6.11302L2.03559 5.46203C2.1291 5.36906 2.13175 5.21559 2.04151 5.11924C1.95127 5.0229 1.80232 5.02017 1.70881 5.11314L1.05408 5.76413C0.960572 5.85711 0.957922 6.01058 1.04816 6.10692Z" fill="#428AFF"/>
    <path fill-rule="evenodd" clip-rule="evenodd" d="M6.95184 6.10692C6.8616 6.20326 6.71265 6.20599 6.61914 6.11302L5.96441 5.46203C5.8709 5.36906 5.86825 5.21559 5.95849 5.11924C6.04873 5.0229 6.19768 5.02017 6.29119 5.11314L6.94592 5.76413C7.03943 5.85711 7.04208 6.01058 6.95184 6.10692Z" fill="#428AFF"/>
    <path fill-rule="evenodd" clip-rule="evenodd" d="M0 3.82287C0 3.68898 0.105344 3.58044 0.235294 3.58044H1.21739C1.34734 3.58044 1.45268 3.68898 1.45268 3.82287C1.45268 3.95676 1.34734 4.06529 1.21739 4.06529H0.235294C0.105344 4.06529 0 3.95676 0 3.82287Z" fill="#525F76"/>
    <path fill-rule="evenodd" clip-rule="evenodd" d="M4.16352 0C4.29347 0 4.39881 0.108537 4.39881 0.242425V1.38165C4.39881 1.51554 4.29347 1.62408 4.16352 1.62408C4.03357 1.62408 3.92822 1.51554 3.92822 1.38165V0.242425C3.92822 0.108537 4.03357 0 4.16352 0Z" fill="#525F76"/>
    <path fill-rule="evenodd" clip-rule="evenodd" d="M6.54736 3.82287C6.54736 3.68898 6.65271 3.58044 6.78266 3.58044H7.76475C7.8947 3.58044 8.00004 3.68898 8.00004 3.82287C8.00004 3.95676 7.8947 4.06529 7.76475 4.06529H6.78266C6.65271 4.06529 6.54736 3.95676 6.54736 3.82287Z" fill="#525F76"/>
</svg>
