<svg width="12" height="12" viewBox="0 0 12 12" fill="none" xmlns="http://www.w3.org/2000/svg">
    <path d="M11.5303 1.53033C11.8232 1.23744 11.8232 0.762564 11.5303 0.469671C11.2374 0.176778 10.7626 0.176778 10.4697 0.469671L6 4.93934L1.53033 0.46968C1.23744 0.176787 0.762562 0.176787 0.469668 0.469681C0.176776 0.762574 0.176776 1.23745 0.469669 1.53034L4.93934 6L0.469669 10.4697C0.176776 10.7626 0.176776 11.2374 0.469669 11.5303C0.762562 11.8232 1.23744 11.8232 1.53033 11.5303L6 7.06066L10.4697 11.5303C10.7626 11.8232 11.2374 11.8232 11.5303 11.5303C11.8232 11.2374 11.8232 10.7626 11.5303 10.4697L7.06066 6L11.5303 1.53033Z" fill="black"/>
</svg>
