<svg width="10" height="10" viewBox="0 0 10 10" fill="none" xmlns="http://www.w3.org/2000/svg">
<path d="M9.2803 0.719762C8.98728 0.426745 8.51221 0.426746 8.21919 0.719763L4.99972 3.93923L1.78087 0.720374C1.48785 0.427358 1.01278 0.427357 0.719762 0.720374C0.426746 1.01339 0.426746 1.48846 0.719762 1.78148L3.93862 5.00034L0.719834 8.21912C0.426818 8.51214 0.426818 8.98721 0.719834 9.28023C1.01285 9.57324 1.48792 9.57324 1.78094 9.28022L4.99972 6.06144L8.21912 9.28084C8.51214 9.57385 8.98721 9.57385 9.28023 9.28084C9.57324 8.98782 9.57324 8.51275 9.28022 8.21973L6.06083 5.00034L9.2803 1.78087C9.57331 1.48785 9.57331 1.01278 9.2803 0.719762Z" fill="#7C7C7C"/>
</svg>
