<svg width="25" height="24" viewBox="0 0 25 24" fill="none" xmlns="http://www.w3.org/2000/svg">
<path d="M3.67085 5.72013C4.25008 5.72013 4.71964 5.25057 4.71964 4.67134C4.71964 4.09211 4.25008 3.62256 3.67085 3.62256C3.09163 3.62256 2.62207 4.09211 2.62207 4.67134C2.62207 5.25057 3.09163 5.72013 3.67085 5.72013Z" fill="white"/>
<path d="M7.86807 4.67134C7.86807 5.25057 7.39852 5.72013 6.81929 5.72013C6.24006 5.72013 5.77051 5.25057 5.77051 4.67134C5.77051 4.09211 6.24006 3.62256 6.81929 3.62256C7.39852 3.62256 7.86807 4.09211 7.86807 4.67134Z" fill="white"/>
<path d="M9.96382 5.72013C10.543 5.72013 11.0126 5.25057 11.0126 4.67134C11.0126 4.09211 10.543 3.62256 9.96382 3.62256C9.3846 3.62256 8.91504 4.09211 8.91504 4.67134C8.91504 5.25057 9.3846 5.72013 9.96382 5.72013Z" fill="white"/>
<path fill-rule="evenodd" clip-rule="evenodd" d="M0.000976562 3.62196C0.000976562 2.17389 1.17487 1 2.62294 1H19.4035C20.8515 1 22.0254 2.17389 22.0254 3.62196V9.91466C22.0254 10.2043 21.7906 10.4391 21.501 10.4391C21.2114 10.4391 20.9766 10.2043 20.9766 9.91466V7.81734H1.04976V16.2074C1.04976 17.0762 1.75409 17.7805 2.62294 17.7805H11.0132C11.3028 17.7805 11.5376 18.0153 11.5376 18.3049C11.5376 18.5945 11.3028 18.8293 11.0132 18.8293H2.62294C1.17487 18.8293 0.000976562 17.6554 0.000976562 16.2074V3.62196ZM20.9766 3.62196V6.76855H1.04976V3.62196C1.04976 2.75312 1.75409 2.04878 2.62294 2.04878H19.4035C20.2723 2.04878 20.9766 2.75312 20.9766 3.62196Z" fill="white"/>
<path fill-rule="evenodd" clip-rule="evenodd" d="M18.8787 22.4995C22.0644 22.4995 24.647 19.917 24.647 16.7312C24.647 13.5455 22.0644 10.9629 18.8787 10.9629C15.6929 10.9629 13.1104 13.5455 13.1104 16.7312C13.1104 19.917 15.6929 22.4995 18.8787 22.4995ZM18.8787 21.4507C21.4852 21.4507 23.5982 19.3377 23.5982 16.7312C23.5982 16.127 23.4846 15.5493 23.2777 15.0183L15.1967 19.6839C16.0616 20.7611 17.3896 21.4507 18.8787 21.4507ZM14.6343 18.7975C14.3299 18.1735 14.1591 17.4723 14.1591 16.7312C14.1591 14.1247 16.2721 12.0117 18.8787 12.0117C20.5062 12.0117 21.9414 12.8355 22.7898 14.089L14.6343 18.7975Z" fill="white"/>
</svg>
