<svg width="12" height="12" viewBox="0 0 12 12" fill="none" xmlns="http://www.w3.org/2000/svg">
<path d="M7.32171 6L11.8083 1.51288C11.9317 1.38936 11.9998 1.22457 12 1.04885C12 0.873033 11.9319 0.708046 11.8083 0.584721L11.4151 0.191623C11.2915 0.0678096 11.1268 0 10.9509 0C10.7752 0 10.6104 0.0678096 10.4868 0.191623L6.00021 4.67845L1.51339 0.191623C1.38998 0.0678096 1.22505 0 1.04925 0C0.873637 0 0.70883 0.0678096 0.585415 0.191623L0.192 0.584721C-0.0639999 0.840737 -0.0639999 1.25716 0.192 1.51288L4.67871 6L0.192 10.4869C0.068487 10.6106 0.000523567 10.7754 0.000523567 10.9512C0.000523567 11.1269 0.068487 11.2917 0.192 11.4153L0.58531 11.8084C0.708725 11.9321 0.87363 12 1.04914 12C1.22495 12 1.38987 11.9321 1.51329 11.8084L6.0001 7.32145L10.4867 11.8084C10.6103 11.9321 10.7751 12 10.9508 12H10.951C11.1267 12 11.2914 11.9321 11.415 11.8084L11.8082 11.4153C11.9316 11.2918 11.9997 11.1269 11.9997 10.9512C11.9997 10.7754 11.9316 10.6106 11.8082 10.487L7.32171 6Z" fill="#525F76"/>
</svg>
