<svg width="41" height="41" viewBox="0 0 41 41" fill="none" xmlns="http://www.w3.org/2000/svg">
    <path d="M20.0438 0.0219062C31.0894 0.0339915 40.0339 8.99809 40.0219 20.0438C40.0098 31.0895 31.0457 40.034 20 40.0219C8.9543 40.0098 0.00979708 31.0457 0.0218824 20C0.0339677 8.95432 8.99806 0.00982092 20.0438 0.0219062ZM20.0026 37.6239C29.7239 37.6345 37.6132 29.7625 37.6238 20.0412C37.6345 10.3199 29.7624 2.43056 20.0411 2.41992C10.3198 2.40928 2.43053 10.2813 2.4199 20.0026C2.40926 29.7239 10.2813 37.6132 20.0026 37.6239Z" fill="#E83636" fill-opacity="0.1"/>
    <path d="M20.0424 1.23581C20.0432 0.56539 19.4997 0.0174695 18.8304 0.0573906C14.3554 0.324326 10.0862 2.08897 6.72082 5.08596C3.35545 8.08296 1.10989 12.12 0.328276 16.5343C0.211386 17.1945 0.69292 17.7976 1.35895 17.8742C2.02497 17.9508 2.62276 17.4719 2.74518 16.8128C3.45498 12.9909 5.41547 9.4994 8.33544 6.89905C11.2554 4.29869 14.9499 2.75426 18.8281 2.49028C19.497 2.44475 20.0417 1.90624 20.0424 1.23581Z" fill="#E83636"/>
    <path d="M9.56998 21.62H10.224V25.364H12.354V26H9.56998V21.62ZM14.4398 26.066C14.1798 26.066 13.9438 26.024 13.7318 25.94C13.5238 25.852 13.3438 25.734 13.1918 25.586C13.0398 25.434 12.9218 25.256 12.8378 25.052C12.7578 24.848 12.7178 24.628 12.7178 24.392C12.7178 24.152 12.7598 23.93 12.8438 23.726C12.9318 23.518 13.0518 23.338 13.2038 23.186C13.3558 23.034 13.5338 22.914 13.7378 22.826C13.9418 22.738 14.1638 22.694 14.4038 22.694C14.6438 22.694 14.8638 22.736 15.0638 22.82C15.2678 22.9 15.4438 23.014 15.5918 23.162C15.7398 23.31 15.8558 23.486 15.9398 23.69C16.0238 23.89 16.0658 24.11 16.0658 24.35V24.62H13.3418C13.3898 24.884 13.5098 25.096 13.7018 25.256C13.8938 25.412 14.1398 25.49 14.4398 25.49C14.6678 25.49 14.8578 25.442 15.0098 25.346C15.1658 25.25 15.2918 25.124 15.3878 24.968L15.9218 25.286C15.7658 25.522 15.5678 25.712 15.3278 25.856C15.0878 25.996 14.7918 26.066 14.4398 26.066ZM14.4038 23.264C14.1438 23.264 13.9218 23.34 13.7378 23.492C13.5538 23.64 13.4298 23.832 13.3658 24.068H15.4118C15.3638 23.812 15.2498 23.614 15.0698 23.474C14.8938 23.334 14.6718 23.264 14.4038 23.264ZM16.2712 22.76H16.9552L17.8852 25.196L18.8512 22.76H19.5232L18.1792 26H17.5432L16.2712 22.76ZM21.4359 26.066C21.1759 26.066 20.9399 26.024 20.7279 25.94C20.5199 25.852 20.3399 25.734 20.1879 25.586C20.0359 25.434 19.9179 25.256 19.8339 25.052C19.7539 24.848 19.7139 24.628 19.7139 24.392C19.7139 24.152 19.7559 23.93 19.8399 23.726C19.9279 23.518 20.0479 23.338 20.1999 23.186C20.3519 23.034 20.5299 22.914 20.7339 22.826C20.9379 22.738 21.1599 22.694 21.3999 22.694C21.6399 22.694 21.8599 22.736 22.0599 22.82C22.2639 22.9 22.4399 23.014 22.5879 23.162C22.7359 23.31 22.8519 23.486 22.9359 23.69C23.0199 23.89 23.0619 24.11 23.0619 24.35V24.62H20.3379C20.3859 24.884 20.5059 25.096 20.6979 25.256C20.8899 25.412 21.1359 25.49 21.4359 25.49C21.6639 25.49 21.8539 25.442 22.0059 25.346C22.1619 25.25 22.2879 25.124 22.3839 24.968L22.9179 25.286C22.7619 25.522 22.5639 25.712 22.3239 25.856C22.0839 25.996 21.7879 26.066 21.4359 26.066ZM21.3999 23.264C21.1399 23.264 20.9179 23.34 20.7339 23.492C20.5499 23.64 20.4259 23.832 20.3619 24.068H22.4079C22.3599 23.812 22.2459 23.614 22.0659 23.474C21.8899 23.334 21.6679 23.264 21.3999 23.264ZM23.6894 21.272H24.3434V26H23.6894V21.272ZM28.3612 24.992H26.3992V24.392L28.3372 21.62H29.0032V24.398H29.6452V24.992H29.0032V26H28.3612V24.992ZM28.3612 24.398V22.61L27.1072 24.398H28.3612Z" fill="#E83636"/>
    <path d="M20.4743 12H21.9643C22.0231 12 22.0706 12.0473 22.0706 12.1059V13.5284C22.0712 13.5869 22.0242 13.6349 21.9655 13.6354C21.9652 13.6354 21.9646 13.6354 21.9643 13.6354H21.5428C21.4841 13.6354 21.4365 13.5881 21.4365 13.5296V13.0903L16.9441 17.3682H17.8681C17.9269 17.3682 17.9744 17.4156 17.9744 17.4741V17.8941C17.9744 17.9527 17.9269 18 17.8681 18H16.1062C16.0475 18 16 17.9527 16 17.8941V17.3702L20.9793 12.6312H20.4743C20.4155 12.6312 20.368 12.5839 20.368 12.5253V12.1059C20.368 12.0473 20.4155 12 20.4743 12ZM16.6335 12.6151H19.4642C19.5229 12.6151 19.5704 12.5678 19.5704 12.5093V12.1059C19.5704 12.0476 19.5232 12.0003 19.4648 12H16.1062C16.0475 12 16 12.0473 16 12.1059V13.5456C16 13.6042 16.0475 13.6515 16.1062 13.6515H16.5278C16.5862 13.6512 16.6335 13.6039 16.6335 13.5456V12.6151ZM21.4365 17.3682H18.8759C18.8172 17.3682 18.7697 17.4156 18.7697 17.4741V17.8941C18.7697 17.9527 18.8172 18 18.8759 18H21.9643C22.0231 18 22.0706 17.9527 22.0706 17.8941V16.4093C22.0703 16.3508 22.0231 16.3037 21.9643 16.3035H21.5428C21.4841 16.3035 21.4365 16.3508 21.4365 16.4093V17.3682Z" fill="black"/>
</svg>
