<svg width="41" height="41" viewBox="0 0 41 41" fill="none" xmlns="http://www.w3.org/2000/svg">
    <path d="M20.0438 0.0219062C31.0894 0.0339915 40.0339 8.99809 40.0219 20.0438C40.0098 31.0895 31.0457 40.034 20 40.0219C8.9543 40.0098 0.00979708 31.0457 0.0218824 20C0.0339677 8.95432 8.99806 0.00982092 20.0438 0.0219062ZM20.0026 37.6239C29.7239 37.6345 37.6132 29.7625 37.6238 20.0412C37.6345 10.3199 29.7624 2.43056 20.0411 2.41992C10.3198 2.40928 2.43053 10.2813 2.4199 20.0026C2.40926 29.7239 10.2813 37.6132 20.0026 37.6239Z" fill="#EACE59" fill-opacity="0.1"/>
    <path d="M20.0424 1.23581C20.0432 0.56539 19.4997 0.0174696 18.8305 0.0573945C14.8088 0.297314 10.9427 1.74754 7.74703 4.23176C4.23113 6.96493 1.728 10.7934 0.634351 15.1103C-0.459294 19.4272 -0.0808831 23.9856 1.70961 28.0631C3.33701 31.7692 6.04635 34.8853 9.46869 37.011C10.0382 37.3648 10.7769 37.1417 11.0955 36.5518C11.4141 35.9619 11.1914 35.2289 10.6249 34.8704C7.67693 33.0049 5.34255 30.298 3.93255 27.087C2.3594 23.5045 2.02693 19.4994 2.98782 15.7065C3.9487 11.9136 6.14798 8.54992 9.23708 6.14854C12.0058 3.99618 15.3474 2.72725 18.828 2.49029C19.4969 2.44476 20.0417 1.90624 20.0424 1.23581Z" fill="#EACE59"/>
    <path d="M9.6813 21.62H10.3353V25.364H12.4653V26H9.6813V21.62ZM14.5511 26.066C14.2911 26.066 14.0551 26.024 13.8431 25.94C13.6351 25.852 13.4551 25.734 13.3031 25.586C13.1511 25.434 13.0331 25.256 12.9491 25.052C12.8691 24.848 12.8291 24.628 12.8291 24.392C12.8291 24.152 12.8711 23.93 12.9551 23.726C13.0431 23.518 13.1631 23.338 13.3151 23.186C13.4671 23.034 13.6451 22.914 13.8491 22.826C14.0531 22.738 14.2751 22.694 14.5151 22.694C14.7551 22.694 14.9751 22.736 15.1751 22.82C15.3791 22.9 15.5551 23.014 15.7031 23.162C15.8511 23.31 15.9671 23.486 16.0511 23.69C16.1351 23.89 16.1771 24.11 16.1771 24.35V24.62H13.4531C13.5011 24.884 13.6211 25.096 13.8131 25.256C14.0051 25.412 14.2511 25.49 14.5511 25.49C14.7791 25.49 14.9691 25.442 15.1211 25.346C15.2771 25.25 15.4031 25.124 15.4991 24.968L16.0331 25.286C15.8771 25.522 15.6791 25.712 15.4391 25.856C15.1991 25.996 14.9031 26.066 14.5511 26.066ZM14.5151 23.264C14.2551 23.264 14.0331 23.34 13.8491 23.492C13.6651 23.64 13.5411 23.832 13.4771 24.068H15.5231C15.4751 23.812 15.3611 23.614 15.1811 23.474C15.0051 23.334 14.7831 23.264 14.5151 23.264ZM16.3826 22.76H17.0666L17.9966 25.196L18.9626 22.76H19.6346L18.2906 26H17.6546L16.3826 22.76ZM21.5472 26.066C21.2872 26.066 21.0512 26.024 20.8392 25.94C20.6312 25.852 20.4512 25.734 20.2992 25.586C20.1472 25.434 20.0292 25.256 19.9452 25.052C19.8652 24.848 19.8252 24.628 19.8252 24.392C19.8252 24.152 19.8672 23.93 19.9512 23.726C20.0392 23.518 20.1592 23.338 20.3112 23.186C20.4632 23.034 20.6412 22.914 20.8452 22.826C21.0492 22.738 21.2712 22.694 21.5112 22.694C21.7512 22.694 21.9712 22.736 22.1712 22.82C22.3752 22.9 22.5512 23.014 22.6992 23.162C22.8472 23.31 22.9632 23.486 23.0472 23.69C23.1312 23.89 23.1732 24.11 23.1732 24.35V24.62H20.4492C20.4972 24.884 20.6172 25.096 20.8092 25.256C21.0012 25.412 21.2472 25.49 21.5472 25.49C21.7752 25.49 21.9652 25.442 22.1172 25.346C22.2732 25.25 22.3992 25.124 22.4952 24.968L23.0292 25.286C22.8732 25.522 22.6752 25.712 22.4352 25.856C22.1952 25.996 21.8992 26.066 21.5472 26.066ZM21.5112 23.264C21.2512 23.264 21.0292 23.34 20.8452 23.492C20.6612 23.64 20.5372 23.832 20.4732 24.068H22.5192C22.4712 23.812 22.3572 23.614 22.1772 23.474C22.0012 23.334 21.7792 23.264 21.5112 23.264ZM23.8007 21.272H24.4547V26H23.8007V21.272ZM27.9385 26.06C27.5745 26.06 27.2685 25.998 27.0205 25.874C26.7765 25.746 26.5625 25.554 26.3785 25.298L26.9245 24.884C27.0445 25.088 27.1865 25.236 27.3505 25.328C27.5145 25.42 27.7105 25.466 27.9385 25.466C28.1985 25.466 28.4085 25.4 28.5685 25.268C28.7325 25.132 28.8145 24.956 28.8145 24.74C28.8145 24.528 28.7345 24.36 28.5745 24.236C28.4185 24.112 28.2085 24.05 27.9445 24.05H27.4405V23.444H27.9025C28.1625 23.444 28.3605 23.38 28.4965 23.252C28.6325 23.124 28.7005 22.964 28.7005 22.772C28.7005 22.592 28.6365 22.44 28.5085 22.316C28.3805 22.192 28.1865 22.13 27.9265 22.13C27.7105 22.13 27.5305 22.174 27.3865 22.262C27.2465 22.346 27.1285 22.476 27.0325 22.652L26.4805 22.334C26.6365 22.094 26.8325 21.906 27.0685 21.77C27.3085 21.63 27.5965 21.56 27.9325 21.56C28.1525 21.56 28.3485 21.59 28.5205 21.65C28.6965 21.706 28.8445 21.788 28.9645 21.896C29.0845 22 29.1765 22.126 29.2405 22.274C29.3045 22.418 29.3365 22.578 29.3365 22.754C29.3365 22.97 29.2885 23.16 29.1925 23.324C29.0965 23.488 28.9625 23.622 28.7905 23.726C28.9985 23.818 29.1625 23.95 29.2825 24.122C29.4025 24.29 29.4625 24.5 29.4625 24.752C29.4625 24.94 29.4265 25.114 29.3545 25.274C29.2865 25.43 29.1865 25.568 29.0545 25.688C28.9265 25.804 28.7685 25.896 28.5805 25.964C28.3925 26.028 28.1785 26.06 27.9385 26.06Z" fill="#EACE59"/>
    <path d="M20.4743 12H21.9643C22.0231 12 22.0706 12.0473 22.0706 12.1059V13.5284C22.0712 13.5869 22.0242 13.6349 21.9655 13.6354C21.9652 13.6354 21.9646 13.6354 21.9643 13.6354H21.5428C21.4841 13.6354 21.4365 13.5881 21.4365 13.5296V13.0903L16.9441 17.3682H17.8681C17.9269 17.3682 17.9744 17.4156 17.9744 17.4741V17.8941C17.9744 17.9527 17.9269 18 17.8681 18H16.1062C16.0475 18 16 17.9527 16 17.8941V17.3702L20.9793 12.6312H20.4743C20.4155 12.6312 20.368 12.5839 20.368 12.5253V12.1059C20.368 12.0473 20.4155 12 20.4743 12ZM16.6335 12.6151H19.4642C19.5229 12.6151 19.5704 12.5678 19.5704 12.5093V12.1059C19.5704 12.0476 19.5232 12.0003 19.4648 12H16.1062C16.0475 12 16 12.0473 16 12.1059V13.5456C16 13.6042 16.0475 13.6515 16.1062 13.6515H16.5278C16.5862 13.6512 16.6335 13.6039 16.6335 13.5456V12.6151ZM21.4365 17.3682H18.8759C18.8172 17.3682 18.7697 17.4156 18.7697 17.4741V17.8941C18.7697 17.9527 18.8172 18 18.8759 18H21.9643C22.0231 18 22.0706 17.9527 22.0706 17.8941V16.4093C22.0703 16.3508 22.0231 16.3037 21.9643 16.3035H21.5428C21.4841 16.3035 21.4365 16.3508 21.4365 16.4093V17.3682Z" fill="black"/>
</svg>
