<svg width="41" height="41" viewBox="0 0 41 41" fill="none" xmlns="http://www.w3.org/2000/svg">
    <path d="M20.0438 0.0219062C31.0894 0.0339915 40.0339 8.99809 40.0219 20.0438C40.0098 31.0895 31.0457 40.034 20 40.0219C8.9543 40.0098 0.00979708 31.0457 0.0218824 20C0.0339677 8.95432 8.99806 0.00982092 20.0438 0.0219062ZM20.0026 37.6239C29.7239 37.6345 37.6132 29.7625 37.6238 20.0412C37.6345 10.3199 29.7624 2.43056 20.0411 2.41992C10.3198 2.40928 2.43053 10.2813 2.4199 20.0026C2.40926 29.7239 10.2813 37.6132 20.0026 37.6239Z" fill="#D2F1D8"/>
    <path d="M20.0424 1.23581C20.0432 0.56539 19.4997 0.0174696 18.8305 0.0573944C14.5285 0.314017 10.4121 1.95505 7.10526 4.75227C3.48871 7.81153 1.07539 12.0551 0.295087 16.7274C-0.485214 21.3996 0.418159 26.1971 2.84433 30.2655C5.2705 34.334 9.06196 37.4092 13.5435 38.9436C18.025 40.478 22.9057 40.3719 27.3163 38.6442C31.727 36.9165 35.3812 33.6795 37.6283 29.5094C39.8754 25.3394 40.5695 20.5072 39.5869 15.8733C38.6884 11.6363 36.4416 7.81658 33.1997 4.97711C32.6954 4.53539 31.9301 4.63523 31.5198 5.16541C31.1095 5.6956 31.2099 6.45501 31.7105 6.90094C34.4994 9.38534 36.4327 12.7025 37.2119 16.3769C38.0752 20.4483 37.4654 24.6939 35.491 28.3577C33.5167 32.0216 30.3061 34.8657 26.4309 36.3836C22.5556 37.9016 18.2674 37.9948 14.3299 36.6467C10.3924 35.2986 7.06118 32.5966 4.92952 29.022C2.79787 25.4475 2.00416 21.2323 2.68974 17.1273C3.37532 13.0222 5.49568 9.29375 8.67322 6.60587C11.5409 4.18008 15.1016 2.74396 18.8281 2.49029C19.4969 2.44476 20.0417 1.90624 20.0424 1.23581Z" fill="#42BC56"/>
    <path d="M9.76138 21.62H10.4154V25.364H12.5454V26H9.76138V21.62ZM14.6312 26.066C14.3712 26.066 14.1352 26.024 13.9232 25.94C13.7152 25.852 13.5352 25.734 13.3832 25.586C13.2312 25.434 13.1132 25.256 13.0292 25.052C12.9492 24.848 12.9092 24.628 12.9092 24.392C12.9092 24.152 12.9512 23.93 13.0352 23.726C13.1232 23.518 13.2432 23.338 13.3952 23.186C13.5472 23.034 13.7252 22.914 13.9292 22.826C14.1332 22.738 14.3552 22.694 14.5952 22.694C14.8352 22.694 15.0552 22.736 15.2552 22.82C15.4592 22.9 15.6352 23.014 15.7832 23.162C15.9312 23.31 16.0472 23.486 16.1312 23.69C16.2152 23.89 16.2572 24.11 16.2572 24.35V24.62H13.5332C13.5812 24.884 13.7012 25.096 13.8932 25.256C14.0852 25.412 14.3312 25.49 14.6312 25.49C14.8592 25.49 15.0492 25.442 15.2012 25.346C15.3572 25.25 15.4832 25.124 15.5792 24.968L16.1132 25.286C15.9572 25.522 15.7592 25.712 15.5192 25.856C15.2792 25.996 14.9832 26.066 14.6312 26.066ZM14.5952 23.264C14.3352 23.264 14.1132 23.34 13.9292 23.492C13.7452 23.64 13.6212 23.832 13.5572 24.068H15.6032C15.5552 23.812 15.4412 23.614 15.2612 23.474C15.0852 23.334 14.8632 23.264 14.5952 23.264ZM16.4626 22.76H17.1466L18.0766 25.196L19.0426 22.76H19.7146L18.3706 26H17.7346L16.4626 22.76ZM21.6273 26.066C21.3673 26.066 21.1313 26.024 20.9193 25.94C20.7113 25.852 20.5313 25.734 20.3793 25.586C20.2273 25.434 20.1093 25.256 20.0253 25.052C19.9453 24.848 19.9053 24.628 19.9053 24.392C19.9053 24.152 19.9473 23.93 20.0313 23.726C20.1193 23.518 20.2393 23.338 20.3913 23.186C20.5433 23.034 20.7213 22.914 20.9253 22.826C21.1293 22.738 21.3513 22.694 21.5913 22.694C21.8313 22.694 22.0513 22.736 22.2513 22.82C22.4553 22.9 22.6313 23.014 22.7793 23.162C22.9273 23.31 23.0433 23.486 23.1273 23.69C23.2113 23.89 23.2533 24.11 23.2533 24.35V24.62H20.5293C20.5773 24.884 20.6973 25.096 20.8893 25.256C21.0813 25.412 21.3273 25.49 21.6273 25.49C21.8553 25.49 22.0453 25.442 22.1973 25.346C22.3533 25.25 22.4793 25.124 22.5753 24.968L23.1093 25.286C22.9533 25.522 22.7553 25.712 22.5153 25.856C22.2753 25.996 21.9793 26.066 21.6273 26.066ZM21.5913 23.264C21.3313 23.264 21.1093 23.34 20.9253 23.492C20.7413 23.64 20.6173 23.832 20.5533 24.068H22.5993C22.5513 23.812 22.4373 23.614 22.2573 23.474C22.0813 23.334 21.8593 23.264 21.5913 23.264ZM23.8808 21.272H24.5348V26H23.8808V21.272ZM27.5386 26V22.586C27.4626 22.742 27.3486 22.868 27.1966 22.964C27.0446 23.056 26.8626 23.102 26.6506 23.102H26.5786V22.454H26.6086C26.7726 22.454 26.9146 22.434 27.0346 22.394C27.1546 22.35 27.2526 22.29 27.3286 22.214C27.4046 22.138 27.4606 22.05 27.4966 21.95C27.5366 21.85 27.5586 21.74 27.5626 21.62H28.1926V26H27.5386Z" fill="#42BC56"/>
    <path d="M20.4743 12H21.9643C22.0231 12 22.0706 12.0473 22.0706 12.1059V13.5284C22.0712 13.5869 22.0242 13.6349 21.9655 13.6354C21.9652 13.6354 21.9646 13.6354 21.9643 13.6354H21.5428C21.4841 13.6354 21.4365 13.5881 21.4365 13.5296V13.0903L16.9441 17.3682H17.8681C17.9269 17.3682 17.9744 17.4156 17.9744 17.4741V17.8941C17.9744 17.9527 17.9269 18 17.8681 18H16.1062C16.0475 18 16 17.9527 16 17.8941V17.3702L20.9793 12.6312H20.4743C20.4155 12.6312 20.368 12.5839 20.368 12.5253V12.1059C20.368 12.0473 20.4155 12 20.4743 12ZM16.6335 12.6151H19.4642C19.5229 12.6151 19.5704 12.5678 19.5704 12.5093V12.1059C19.5704 12.0476 19.5232 12.0003 19.4648 12H16.1062C16.0475 12 16 12.0473 16 12.1059V13.5456C16 13.6042 16.0475 13.6515 16.1062 13.6515H16.5278C16.5862 13.6512 16.6335 13.6039 16.6335 13.5456V12.6151ZM21.4365 17.3682H18.8759C18.8172 17.3682 18.7697 17.4156 18.7697 17.4741V17.8941C18.7697 17.9527 18.8172 18 18.8759 18H21.9643C22.0231 18 22.0706 17.9527 22.0706 17.8941V16.4093C22.0703 16.3508 22.0231 16.3037 21.9643 16.3035H21.5428C21.4841 16.3035 21.4365 16.3508 21.4365 16.4093V17.3682Z" fill="black"/>
</svg>
