<svg width="41" height="41" viewBox="0 0 41 41" fill="none" xmlns="http://www.w3.org/2000/svg">
    <path d="M20.0438 0.0219062C31.0894 0.0339915 40.0339 8.99809 40.0219 20.0438C40.0098 31.0895 31.0457 40.034 20 40.0219C8.9543 40.0098 0.00979708 31.0457 0.0218824 20C0.0339677 8.95432 8.99806 0.00982092 20.0438 0.0219062ZM20.0026 37.6239C29.7239 37.6345 37.6132 29.7625 37.6238 20.0412C37.6345 10.3199 29.7624 2.43056 20.0411 2.41992C10.3198 2.40928 2.43053 10.2813 2.4199 20.0026C2.40926 29.7239 10.2813 37.6132 20.0026 37.6239Z" fill="#FE7A00" fill-opacity="0.1"/>
    <path d="M20.0424 1.23581C20.0432 0.56539 19.4997 0.0174734 18.8305 0.0574021C15.5354 0.254019 12.3333 1.26383 9.5139 3.00477C6.34955 4.95874 3.79269 7.7563 2.13053 11.0832C0.468376 14.4101 -0.233232 18.1346 0.104519 21.8382C0.442271 25.5419 1.806 29.078 4.04253 32.0494C6.27905 35.0208 9.29977 37.3097 12.7654 38.659C16.231 40.0084 20.0041 40.3647 23.6611 39.688C27.318 39.0113 30.7138 37.3283 33.4671 34.8282C35.9201 32.6006 37.7765 29.803 38.8772 26.6909C39.1008 26.0588 38.7246 25.385 38.0802 25.2002C37.4357 25.0154 36.7675 25.3899 36.5387 26.02C35.5659 28.6987 33.9537 31.1068 31.8349 33.0309C29.4159 35.2275 26.4323 36.7062 23.2193 37.3007C20.0063 37.8953 16.6911 37.5822 13.6462 36.3967C10.6013 35.2111 7.9473 33.2 5.98227 30.5894C4.01724 27.9787 2.81905 24.8718 2.5223 21.6178C2.22555 18.3637 2.84199 15.0913 4.30237 12.1683C5.76276 9.24523 8.00924 6.78727 10.7895 5.07049C13.2246 3.56679 15.9848 2.68389 18.8281 2.4903C19.497 2.44476 20.0417 1.90624 20.0424 1.23581Z" fill="#FE7A00"/>
    <path d="M10.7516 21.62H11.4056V25.364H13.5356V26H10.7516V21.62ZM15.6215 26.066C15.3615 26.066 15.1255 26.024 14.9135 25.94C14.7055 25.852 14.5255 25.734 14.3735 25.586C14.2215 25.434 14.1035 25.256 14.0195 25.052C13.9395 24.848 13.8995 24.628 13.8995 24.392C13.8995 24.152 13.9415 23.93 14.0255 23.726C14.1135 23.518 14.2335 23.338 14.3855 23.186C14.5375 23.034 14.7155 22.914 14.9195 22.826C15.1235 22.738 15.3455 22.694 15.5855 22.694C15.8255 22.694 16.0455 22.736 16.2455 22.82C16.4495 22.9 16.6255 23.014 16.7735 23.162C16.9215 23.31 17.0375 23.486 17.1215 23.69C17.2055 23.89 17.2475 24.11 17.2475 24.35V24.62H14.5235C14.5715 24.884 14.6915 25.096 14.8835 25.256C15.0755 25.412 15.3215 25.49 15.6215 25.49C15.8495 25.49 16.0395 25.442 16.1915 25.346C16.3475 25.25 16.4735 25.124 16.5695 24.968L17.1035 25.286C16.9475 25.522 16.7495 25.712 16.5095 25.856C16.2695 25.996 15.9735 26.066 15.6215 26.066ZM15.5855 23.264C15.3255 23.264 15.1035 23.34 14.9195 23.492C14.7355 23.64 14.6115 23.832 14.5475 24.068H16.5935C16.5455 23.812 16.4315 23.614 16.2515 23.474C16.0755 23.334 15.8535 23.264 15.5855 23.264ZM17.4529 22.76H18.1369L19.0669 25.196L20.0329 22.76H20.7049L19.3609 26H18.7249L17.4529 22.76ZM22.6176 26.066C22.3576 26.066 22.1216 26.024 21.9096 25.94C21.7016 25.852 21.5216 25.734 21.3696 25.586C21.2176 25.434 21.0996 25.256 21.0156 25.052C20.9356 24.848 20.8956 24.628 20.8956 24.392C20.8956 24.152 20.9376 23.93 21.0216 23.726C21.1096 23.518 21.2296 23.338 21.3816 23.186C21.5336 23.034 21.7116 22.914 21.9156 22.826C22.1196 22.738 22.3416 22.694 22.5816 22.694C22.8216 22.694 23.0416 22.736 23.2416 22.82C23.4456 22.9 23.6216 23.014 23.7696 23.162C23.9176 23.31 24.0336 23.486 24.1176 23.69C24.2016 23.89 24.2436 24.11 24.2436 24.35V24.62H21.5196C21.5676 24.884 21.6876 25.096 21.8796 25.256C22.0716 25.412 22.3176 25.49 22.6176 25.49C22.8456 25.49 23.0356 25.442 23.1876 25.346C23.3436 25.25 23.4696 25.124 23.5656 24.968L24.0996 25.286C23.9436 25.522 23.7456 25.712 23.5056 25.856C23.2656 25.996 22.9696 26.066 22.6176 26.066ZM22.5816 23.264C22.3216 23.264 22.0996 23.34 21.9156 23.492C21.7316 23.64 21.6076 23.832 21.5436 24.068H23.5896C23.5416 23.812 23.4276 23.614 23.2476 23.474C23.0716 23.334 22.8496 23.264 22.5816 23.264ZM24.871 21.272H25.525V26H24.871V21.272ZM27.6168 25.376C27.6168 25.196 27.6508 25.032 27.7188 24.884C27.7868 24.736 27.8768 24.6 27.9888 24.476C28.1008 24.348 28.2268 24.23 28.3668 24.122C28.5068 24.014 28.6468 23.912 28.7868 23.816C28.9068 23.732 29.0228 23.65 29.1348 23.57C29.2468 23.486 29.3448 23.402 29.4288 23.318C29.5168 23.234 29.5868 23.148 29.6388 23.06C29.6908 22.972 29.7168 22.878 29.7168 22.778C29.7168 22.59 29.6528 22.436 29.5248 22.316C29.3968 22.192 29.2148 22.13 28.9788 22.13C28.7748 22.13 28.6028 22.188 28.4628 22.304C28.3228 22.42 28.2088 22.572 28.1208 22.76L27.5568 22.472C27.6848 22.196 27.8688 21.976 28.1088 21.812C28.3528 21.644 28.6428 21.56 28.9788 21.56C29.1948 21.56 29.3888 21.592 29.5608 21.656C29.7368 21.72 29.8848 21.808 30.0048 21.92C30.1248 22.028 30.2168 22.158 30.2808 22.31C30.3488 22.458 30.3828 22.616 30.3828 22.784C30.3828 22.956 30.3488 23.112 30.2808 23.252C30.2168 23.388 30.1308 23.516 30.0228 23.636C29.9148 23.752 29.7928 23.86 29.6568 23.96C29.5208 24.06 29.3848 24.158 29.2488 24.254C29.1248 24.338 29.0028 24.424 28.8828 24.512C28.7668 24.596 28.6628 24.684 28.5708 24.776C28.4828 24.864 28.4108 24.958 28.3548 25.058C28.3028 25.154 28.2768 25.26 28.2768 25.376H30.3888V26H27.6168V25.376Z" fill="#FE7A00"/>
    <path d="M21.4743 12H22.9643C23.0231 12 23.0706 12.0473 23.0706 12.1059V13.5284C23.0712 13.5869 23.0242 13.6349 22.9655 13.6354C22.9652 13.6354 22.9646 13.6354 22.9643 13.6354H22.5428C22.4841 13.6354 22.4365 13.5881 22.4365 13.5296V13.0903L17.9441 17.3682H18.8681C18.9269 17.3682 18.9744 17.4156 18.9744 17.4741V17.8941C18.9744 17.9527 18.9269 18 18.8681 18H17.1062C17.0475 18 17 17.9527 17 17.8941V17.3702L21.9793 12.6312H21.4743C21.4155 12.6312 21.368 12.5839 21.368 12.5253V12.1059C21.368 12.0473 21.4155 12 21.4743 12ZM17.6335 12.6151H20.4642C20.5229 12.6151 20.5704 12.5678 20.5704 12.5093V12.1059C20.5704 12.0476 20.5232 12.0003 20.4648 12H17.1062C17.0475 12 17 12.0473 17 12.1059V13.5456C17 13.6042 17.0475 13.6515 17.1062 13.6515H17.5278C17.5862 13.6512 17.6335 13.6039 17.6335 13.5456V12.6151ZM22.4365 17.3682H19.8759C19.8172 17.3682 19.7697 17.4156 19.7697 17.4741V17.8941C19.7697 17.9527 19.8172 18 19.8759 18H22.9643C23.0231 18 23.0706 17.9527 23.0706 17.8941V16.4093C23.0703 16.3508 23.0231 16.3037 22.9643 16.3035H22.5428C22.4841 16.3035 22.4365 16.3508 22.4365 16.4093V17.3682Z" fill="black"/>
</svg>
