<svg width="41" height="42" viewBox="0 0 41 42" fill="none" xmlns="http://www.w3.org/2000/svg">
    <circle opacity="0.3" cx="20" cy="21" r="19" stroke="#84D896" stroke-width="2"/>
    <path d="M20.3622 2C30.6556 2 39 10.5066 39 21C39 31.4934 30.6556 40 20.3622 40C14.5833 40 9.4186 37.3187 6 33.1099" stroke="#42BC56" stroke-width="3" stroke-linecap="round"/>
    <path d="M10.7516 23.62H11.4056V27.364H13.5356V28H10.7516V23.62ZM15.6215 28.066C15.3615 28.066 15.1255 28.024 14.9135 27.94C14.7055 27.852 14.5255 27.734 14.3735 27.586C14.2215 27.434 14.1035 27.256 14.0195 27.052C13.9395 26.848 13.8995 26.628 13.8995 26.392C13.8995 26.152 13.9415 25.93 14.0255 25.726C14.1135 25.518 14.2335 25.338 14.3855 25.186C14.5375 25.034 14.7155 24.914 14.9195 24.826C15.1235 24.738 15.3455 24.694 15.5855 24.694C15.8255 24.694 16.0455 24.736 16.2455 24.82C16.4495 24.9 16.6255 25.014 16.7735 25.162C16.9215 25.31 17.0375 25.486 17.1215 25.69C17.2055 25.89 17.2475 26.11 17.2475 26.35V26.62H14.5235C14.5715 26.884 14.6915 27.096 14.8835 27.256C15.0755 27.412 15.3215 27.49 15.6215 27.49C15.8495 27.49 16.0395 27.442 16.1915 27.346C16.3475 27.25 16.4735 27.124 16.5695 26.968L17.1035 27.286C16.9475 27.522 16.7495 27.712 16.5095 27.856C16.2695 27.996 15.9735 28.066 15.6215 28.066ZM15.5855 25.264C15.3255 25.264 15.1035 25.34 14.9195 25.492C14.7355 25.64 14.6115 25.832 14.5475 26.068H16.5935C16.5455 25.812 16.4315 25.614 16.2515 25.474C16.0755 25.334 15.8535 25.264 15.5855 25.264ZM17.4529 24.76H18.1369L19.0669 27.196L20.0329 24.76H20.7049L19.3609 28H18.7249L17.4529 24.76ZM22.6176 28.066C22.3576 28.066 22.1216 28.024 21.9096 27.94C21.7016 27.852 21.5216 27.734 21.3696 27.586C21.2176 27.434 21.0996 27.256 21.0156 27.052C20.9356 26.848 20.8956 26.628 20.8956 26.392C20.8956 26.152 20.9376 25.93 21.0216 25.726C21.1096 25.518 21.2296 25.338 21.3816 25.186C21.5336 25.034 21.7116 24.914 21.9156 24.826C22.1196 24.738 22.3416 24.694 22.5816 24.694C22.8216 24.694 23.0416 24.736 23.2416 24.82C23.4456 24.9 23.6216 25.014 23.7696 25.162C23.9176 25.31 24.0336 25.486 24.1176 25.69C24.2016 25.89 24.2436 26.11 24.2436 26.35V26.62H21.5196C21.5676 26.884 21.6876 27.096 21.8796 27.256C22.0716 27.412 22.3176 27.49 22.6176 27.49C22.8456 27.49 23.0356 27.442 23.1876 27.346C23.3436 27.25 23.4696 27.124 23.5656 26.968L24.0996 27.286C23.9436 27.522 23.7456 27.712 23.5056 27.856C23.2656 27.996 22.9696 28.066 22.6176 28.066ZM22.5816 25.264C22.3216 25.264 22.0996 25.34 21.9156 25.492C21.7316 25.64 21.6076 25.832 21.5436 26.068H23.5896C23.5416 25.812 23.4276 25.614 23.2476 25.474C23.0716 25.334 22.8496 25.264 22.5816 25.264ZM24.871 23.272H25.525V28H24.871V23.272ZM27.6168 27.376C27.6168 27.196 27.6508 27.032 27.7188 26.884C27.7868 26.736 27.8768 26.6 27.9888 26.476C28.1008 26.348 28.2268 26.23 28.3668 26.122C28.5068 26.014 28.6468 25.912 28.7868 25.816C28.9068 25.732 29.0228 25.65 29.1348 25.57C29.2468 25.486 29.3448 25.402 29.4288 25.318C29.5168 25.234 29.5868 25.148 29.6388 25.06C29.6908 24.972 29.7168 24.878 29.7168 24.778C29.7168 24.59 29.6528 24.436 29.5248 24.316C29.3968 24.192 29.2148 24.13 28.9788 24.13C28.7748 24.13 28.6028 24.188 28.4628 24.304C28.3228 24.42 28.2088 24.572 28.1208 24.76L27.5568 24.472C27.6848 24.196 27.8688 23.976 28.1088 23.812C28.3528 23.644 28.6428 23.56 28.9788 23.56C29.1948 23.56 29.3888 23.592 29.5608 23.656C29.7368 23.72 29.8848 23.808 30.0048 23.92C30.1248 24.028 30.2168 24.158 30.2808 24.31C30.3488 24.458 30.3828 24.616 30.3828 24.784C30.3828 24.956 30.3488 25.112 30.2808 25.252C30.2168 25.388 30.1308 25.516 30.0228 25.636C29.9148 25.752 29.7928 25.86 29.6568 25.96C29.5208 26.06 29.3848 26.158 29.2488 26.254C29.1248 26.338 29.0028 26.424 28.8828 26.512C28.7668 26.596 28.6628 26.684 28.5708 26.776C28.4828 26.864 28.4108 26.958 28.3548 27.058C28.3028 27.154 28.2768 27.26 28.2768 27.376H30.3888V28H27.6168V27.376Z" fill="#42BC56"/>
    <path d="M21.4743 14H22.9643C23.0231 14 23.0706 14.0473 23.0706 14.1059V15.5284C23.0712 15.5869 23.0242 15.6349 22.9655 15.6354C22.9652 15.6354 22.9646 15.6354 22.9643 15.6354H22.5428C22.4841 15.6354 22.4365 15.5881 22.4365 15.5296V15.0903L17.9441 19.3682H18.8681C18.9269 19.3682 18.9744 19.4156 18.9744 19.4741V19.8941C18.9744 19.9527 18.9269 20 18.8681 20H17.1062C17.0475 20 17 19.9527 17 19.8941V19.3702L21.9793 14.6312H21.4743C21.4155 14.6312 21.368 14.5839 21.368 14.5253V14.1059C21.368 14.0473 21.4155 14 21.4743 14ZM17.6335 14.6151H20.4642C20.5229 14.6151 20.5704 14.5678 20.5704 14.5093V14.1059C20.5704 14.0476 20.5232 14.0003 20.4648 14H17.1062C17.0475 14 17 14.0473 17 14.1059V15.5456C17 15.6042 17.0475 15.6515 17.1062 15.6515H17.5278C17.5862 15.6512 17.6335 15.6039 17.6335 15.5456V14.6151ZM22.4365 19.3682H19.8759C19.8172 19.3682 19.7697 19.4156 19.7697 19.4741V19.8941C19.7697 19.9527 19.8172 20 19.8759 20H22.9643C23.0231 20 23.0706 19.9527 23.0706 19.8941V18.4093C23.0703 18.3508 23.0231 18.3037 22.9643 18.3035H22.5428C22.4841 18.3035 22.4365 18.3508 22.4365 18.4093V19.3682Z" fill="black"/>
</svg>
